<?xml version="1.0" encoding="UTF-8" standalone="no"?>
<!-- Created with Inkscape (http://www.inkscape.org/) -->

<svg
   xmlns:dc="http://purl.org/dc/elements/1.1/"
   xmlns:cc="http://creativecommons.org/ns#"
   xmlns:rdf="http://www.w3.org/1999/02/22-rdf-syntax-ns#"
   xmlns:svg="http://www.w3.org/2000/svg"
   xmlns="http://www.w3.org/2000/svg"
   xmlns:sodipodi="http://sodipodi.sourceforge.net/DTD/sodipodi-0.dtd"
   xmlns:inkscape="http://www.inkscape.org/namespaces/inkscape"
   width="210mm"
   height="297mm"
   viewBox="0 0 210 297"
   version="1.1"
   id="svg836"
   inkscape:version="0.92.5 (2060ec1f9f, 2020-04-08)"
   sodipodi:docname="icons.svg"
   inkscape:export-filename="/home/miko/Desktop/errors.png"
   inkscape:export-xdpi="15.71"
   inkscape:export-ydpi="15.71">
  <defs
     id="defs830" />
  <sodipodi:namedview
     id="base"
     pagecolor="#ffffff"
     bordercolor="#666666"
     borderopacity="1.0"
     inkscape:pageopacity="0.0"
     inkscape:pageshadow="2"
     inkscape:zoom="2.2258396"
     inkscape:cx="417.54681"
     inkscape:cy="384.59068"
     inkscape:document-units="mm"
     inkscape:current-layer="layer1"
     showgrid="false"
     inkscape:window-width="1600"
     inkscape:window-height="829"
     inkscape:window-x="0"
     inkscape:window-y="0"
     inkscape:window-maximized="1" />
  <metadata
     id="metadata833">
    <rdf:RDF>
      <cc:Work
         rdf:about="">
        <dc:format>image/svg+xml</dc:format>
        <dc:type
           rdf:resource="http://purl.org/dc/dcmitype/StillImage" />
        <dc:title />
      </cc:Work>
    </rdf:RDF>
  </metadata>
  <g
     inkscape:label="Layer 1"
     inkscape:groupmode="layer"
     id="layer1">
    <g
       aria-label="e"
       transform="matrix(1.6990115,0,0,1.6990115,-470.4962,-702.76501)"
       style="font-style:normal;font-weight:normal;font-size:40px;line-height:1.25;font-family:sans-serif;text-align:center;letter-spacing:0px;word-spacing:0px;text-anchor:middle;fill:#ee0000;fill-opacity:1;stroke:#000000;stroke-width:2.58508158;stroke-opacity:1;stroke-miterlimit:4;stroke-dasharray:none;stroke-linejoin:round;stroke-linecap:round;paint-order:stroke fill markers"
       id="flowRoot838">
      <path
         sodipodi:type="inkscape:offset"
         inkscape:radius="1.0480388"
         inkscape:original="M 337.48242 489.92773 C 336.28242 489.92773 335.10956 490.15409 333.96289 490.60742 C 332.81622 491.06076 331.80187 491.73982 330.92188 492.64648 C 330.04188 493.55315 329.33607 494.70122 328.80273 496.08789 C 328.2694 497.44789 328.00195 499.04672 328.00195 500.88672 C 328.00195 502.46005 328.20352 503.91276 328.60352 505.24609 C 329.03018 506.55276 329.6701 507.68648 330.52344 508.64648 C 331.37677 509.60648 332.45505 510.36773 333.76172 510.92773 C 335.09505 511.46107 336.66909 511.72656 338.48242 511.72656 C 339.92242 511.72656 341.20227 511.59284 342.32227 511.32617 C 343.46893 511.05951 344.26932 510.80641 344.72266 510.56641 L 344.20312 507.44727 C 343.74979 507.6606 343.06878 507.88695 342.16211 508.12695 C 341.28211 508.34029 340.18948 508.44727 338.88281 508.44727 C 336.56281 508.44727 334.85505 507.88758 333.76172 506.76758 C 332.66839 505.64758 332.04281 504.00766 331.88281 501.84766 L 346.12305 501.84766 C 346.14971 501.63432 346.16211 501.40602 346.16211 501.16602 L 346.16211 500.52734 C 346.16211 496.95401 345.41521 494.29974 343.92188 492.56641 C 342.42854 490.80641 340.28242 489.92773 337.48242 489.92773 z M 337.44336 493.08789 C 338.96336 493.08789 340.14862 493.63323 341.00195 494.72656 C 341.88195 495.79323 342.30987 497.16766 342.2832 498.84766 L 331.96289 498.84766 C 332.04289 498.12766 332.20336 497.4199 332.44336 496.72656 C 332.71003 496.03323 333.0701 495.42005 333.52344 494.88672 C 333.97677 494.35339 334.52211 493.92742 335.16211 493.60742 C 335.82878 493.26076 336.59003 493.08789 337.44336 493.08789 z "
         style="font-style:normal;font-variant:normal;font-weight:normal;font-stretch:normal;font-family:Ubuntu;-inkscape-font-specification:Ubuntu;fill:#ee0000;fill-opacity:1;stroke:#000000;stroke-width:2.58508158;stroke-linecap:round;stroke-linejoin:round;stroke-miterlimit:4;stroke-dasharray:none;stroke-opacity:1;paint-order:stroke fill markers"
         id="path865"
         d="m 337.48242,488.87891 c -1.33179,0 -2.64132,0.25459 -3.9043,0.7539 -1.28291,0.50721 -2.43002,1.27539 -3.4082,2.28321 -0.99229,1.02236 -1.76887,2.2992 -2.34375,3.79296 -3.4e-4,9.1e-4 -0.002,0.001 -0.002,0.002 -0.59037,1.5078 -0.8711,3.23648 -0.8711,5.17578 0,1.66284 0.21413,3.21896 0.64649,4.66016 a 1.0481436,1.0481436 0 0 0 0.008,0.0254 c 0.46712,1.43056 1.18012,2.69775 2.13281,3.76953 0.96181,1.08204 2.17851,1.93559 3.60938,2.54882 a 1.0481436,1.0481436 0 0 0 0.0234,0.01 c 1.48606,0.59443 3.19375,0.875 5.10937,0.875 1.50488,0 2.86382,-0.13963 4.08203,-0.42969 1.18145,-0.2749 2.01455,-0.51793 2.64844,-0.85351 a 1.0481436,1.0481436 0 0 0 0.54297,-1.09766 l -0.51953,-3.11914 a 1.0481436,1.0481436 0 0 0 -1.47852,-0.77734 c -0.34445,0.16209 -0.98635,0.38281 -1.85547,0.61328 -0.76373,0.18388 -1.77572,0.28711 -3.01953,0.28711 -2.15144,0 -3.53691,-0.50875 -4.37109,-1.36328 -0.68195,-0.69858 -1.09996,-1.79316 -1.35352,-3.13868 h 12.96485 a 1.0481436,1.0481436 0 0 0 1.03906,-0.91796 c 0.0331,-0.26496 0.0488,-0.53641 0.0488,-0.8125 v -0.63868 c 0,-3.71622 -0.76745,-6.63557 -2.49024,-8.63867 l -0.002,-0.002 c -1.70246,-2.00508 -4.21814,-3.00781 -7.23633,-3.00781 z m -0.0391,5.25781 c 1.26933,0 2.0647,0.37886 2.73242,1.23437 a 1.0481436,1.0481436 0 0 0 0.0176,0.0215 c 0.51919,0.62932 0.78247,1.45439 0.91211,2.40625 h -7.83789 c 0.0596,-0.23488 0.0804,-0.47481 0.16015,-0.70703 0.2269,-0.58596 0.52331,-1.08867 0.89454,-1.52539 0.36305,-0.42713 0.78834,-0.76136 1.30859,-1.02149 a 1.0481436,1.0481436 0 0 0 0.0156,-0.008 c 0.50348,-0.2618 1.08509,-0.40039 1.79688,-0.40039 z"
         transform="translate(-26.821157,-4.1686843)" />
    </g>
    <g
       aria-label="s"
       transform="matrix(1.6561013,0,0,1.6561013,-503.33963,-676.5206)"
       style="font-style:normal;font-weight:normal;font-size:40px;line-height:1.25;font-family:sans-serif;letter-spacing:0px;word-spacing:0px;fill:#00d600;fill-opacity:1;stroke:#000000;stroke-width:2.30058391;stroke-opacity:1;paint-order:stroke fill markers;stroke-miterlimit:4;stroke-dasharray:none;stroke-linejoin:round"
       id="flowRoot870">
      <path
         sodipodi:type="inkscape:offset"
         inkscape:radius="0.95099229"
         inkscape:original="M 368.29492 482.91016 C 365.94826 482.91016 364.09438 483.45549 362.73438 484.54883 C 361.37437 485.61549 360.69531 487.07016 360.69531 488.91016 C 360.69531 489.84349 360.85578 490.62953 361.17578 491.26953 C 361.49578 491.90953 361.92174 492.45682 362.45508 492.91016 C 362.98841 493.36349 363.61594 493.76271 364.33594 494.10938 C 365.0826 494.42937 365.85625 494.75031 366.65625 495.07031 C 368.30958 495.73698 369.49484 496.33581 370.21484 496.86914 C 370.93484 497.40247 371.29492 498.12263 371.29492 499.0293 C 371.29492 499.9093 370.92245 500.54922 370.17578 500.94922 C 369.45578 501.34922 368.33445 501.54883 366.81445 501.54883 C 365.26779 501.54883 364.02904 501.39031 363.0957 501.07031 C 362.16237 500.75031 361.48135 500.50961 361.05469 500.34961 L 360.375 503.54883 C 360.74833 503.70883 361.45609 503.93518 362.49609 504.22852 C 363.53609 504.54852 364.97445 504.70898 366.81445 504.70898 C 369.45445 504.70898 371.4812 504.21518 372.89453 503.22852 C 374.33453 502.24185 375.05469 500.78914 375.05469 498.86914 C 375.05469 497.88247 374.90857 497.05534 374.61523 496.38867 C 374.3219 495.69534 373.89594 495.10891 373.33594 494.62891 C 372.8026 494.14891 372.14833 493.73534 371.375 493.38867 C 370.60167 493.01534 369.72104 492.64286 368.73438 492.26953 C 367.98771 492.00286 367.34779 491.74977 366.81445 491.50977 C 366.28112 491.26977 365.82841 491.01667 365.45508 490.75 C 365.10841 490.45667 364.84292 490.13573 364.65625 489.78906 C 364.49625 489.4424 364.41602 489.04318 364.41602 488.58984 C 364.41602 487.70984 364.80284 487.06992 365.57617 486.66992 C 366.34951 486.24326 367.25492 486.0293 368.29492 486.0293 C 369.49492 486.0293 370.52167 486.14867 371.375 486.38867 C 372.22833 486.60201 372.85586 486.81596 373.25586 487.0293 L 373.93555 483.83008 C 373.72221 483.75008 373.41562 483.65549 373.01562 483.54883 C 372.64229 483.44216 372.20198 483.34953 371.69531 483.26953 C 371.18865 483.16286 370.64135 483.08263 370.05469 483.0293 C 369.46802 482.9493 368.88159 482.91016 368.29492 482.91016 z "
         style="font-style:normal;font-variant:normal;font-weight:normal;font-stretch:normal;font-family:Ubuntu;-inkscape-font-specification:Ubuntu;text-align:center;text-anchor:middle;fill:#00d600;fill-opacity:1;stroke:#000000;stroke-width:2.30058391;stroke-linejoin:round;stroke-miterlimit:4;stroke-dasharray:none;stroke-opacity:1;paint-order:stroke fill markers"
         id="path878"
         d="m 368.29492,481.95898 c -2.49115,0 -4.58242,0.58767 -6.15039,1.84571 -1.56651,1.23082 -2.40039,3.03347 -2.40039,5.10547 0,1.04233 0.17766,1.98031 0.58008,2.78515 0.37398,0.74797 0.88489,1.40333 1.51562,1.93946 0.60389,0.5133 1.30147,0.95525 2.08399,1.33203 a 0.95108739,0.95108739 0 0 0 0.0371,0.0176 c 0.75312,0.32276 1.53317,0.64606 2.33984,0.96874 1.61635,0.65176 2.75519,1.24083 3.34766,1.67969 0.51283,0.37988 0.69531,0.74161 0.69531,1.39649 0,0.61165 -0.12663,0.81923 -0.61719,1.08203 a 0.95108739,0.95108739 0 0 0 -0.0117,0.006 c -0.47098,0.26166 -1.46364,0.48047 -2.90039,0.48047 -1.48168,0 -2.62987,-0.16021 -3.41015,-0.42774 -0.92919,-0.31858 -1.60688,-0.55765 -2.01563,-0.71094 a 0.95108739,0.95108739 0 0 0 -1.26367,0.69336 l -0.67969,3.19922 A 0.95108739,0.95108739 0 0 0 360,504.42383 c 0.47023,0.20153 1.17917,0.41983 2.2168,0.71289 1.19015,0.3662 2.70236,0.52344 4.59765,0.52344 2.75668,0 4.98031,-0.50639 6.6211,-1.65039 1.67403,-1.14934 2.57031,-2.98487 2.57031,-5.14063 0,-1.07758 -0.15648,-2.0315 -0.51758,-2.85547 -0.34577,-0.81561 -0.8624,-1.52764 -1.52734,-2.09961 -0.61585,-0.55208 -1.35144,-1.01277 -2.19336,-1.39062 -0.80002,-0.38535 -1.69801,-0.76448 -2.69727,-1.14258 a 0.95108739,0.95108739 0 0 0 -0.0156,-0.008 c -0.72927,-0.26046 -1.34771,-0.50462 -1.84961,-0.73047 -0.47135,-0.21211 -0.85011,-0.4294 -1.1543,-0.64258 -0.24465,-0.21162 -0.41745,-0.42362 -0.53711,-0.63867 -0.0883,-0.20042 -0.14648,-0.44285 -0.14648,-0.77149 0,-0.60131 0.12583,-0.80687 0.64648,-1.07617 a 0.95108739,0.95108739 0 0 0 0.0215,-0.0117 c 0.61619,-0.33996 1.35019,-0.52148 2.25976,-0.52148 1.13694,0 2.08122,0.1158 2.82227,0.32422 a 0.95108739,0.95108739 0 0 0 0.0273,0.006 c 0.81462,0.20366 1.39553,0.41537 1.66406,0.55859 a 0.95108739,0.95108739 0 0 0 1.37696,-0.64258 l 0.67968,-3.19922 a 0.95108739,0.95108739 0 0 0 -0.5957,-1.08789 c -0.26259,-0.0985 -0.59052,-0.19728 -1.00781,-0.30859 h -0.002 c -0.4056,-0.11503 -0.86233,-0.2095 -1.36915,-0.29102 -0.001,-2.5e-4 -0.003,2.6e-4 -0.004,0 -0.53322,-0.1121 -1.10217,-0.19579 -1.70313,-0.25195 -0.002,-2.6e-4 -0.004,2.6e-4 -0.006,0 -0.62764,-0.0853 -1.25578,-0.12891 -1.88281,-0.12891 z"
         inkscape:export-xdpi="19.49"
         inkscape:export-ydpi="19.49" />
    </g>
    <path
       sodipodi:type="inkscape:offset"
       inkscape:radius="22.939516"
       inkscape:original="M 368.47852 4.2441406 A 26.50265 26.50265 0 0 0 350.26172 12.261719 L 310.11719 52.40625 C 279.3193 29.347934 241.26502 15.5 200 15.5 C 98.417347 15.5 15.5 98.417347 15.5 200 C 15.5 241.26502 29.347934 279.3193 52.40625 310.11719 L 12.261719 350.26172 A 26.50265 26.50265 0 1 0 49.738281 387.73828 L 89.882812 347.59375 C 120.6807 370.65207 158.73498 384.5 200 384.5 C 301.58265 384.5 384.5 301.58265 384.5 200 C 384.5 158.73498 370.65207 120.6807 347.59375 89.882812 L 387.73828 49.738281 A 26.50265 26.50265 0 0 0 368.47852 4.2441406 z M 200 68.5 C 226.82548 68.5 251.67033 76.471197 272.4082 90.115234 L 90.115234 272.4082 C 76.471197 251.67033 68.5 226.82548 68.5 200 C 68.5 127.06067 127.06067 68.5 200 68.5 z M 309.88477 127.5918 C 323.5288 148.32967 331.5 173.17452 331.5 200 C 331.5 272.93933 272.93933 331.5 200 331.5 C 173.17452 331.5 148.32967 323.5288 127.5918 309.88477 L 309.88477 127.5918 z "
       style="color:#000000;font-style:normal;font-variant:normal;font-weight:normal;font-stretch:normal;font-size:medium;line-height:normal;font-family:sans-serif;font-variant-ligatures:normal;font-variant-position:normal;font-variant-caps:normal;font-variant-numeric:normal;font-variant-alternates:normal;font-feature-settings:normal;text-indent:0;text-align:start;text-decoration:none;text-decoration-line:none;text-decoration-style:solid;text-decoration-color:#000000;letter-spacing:normal;word-spacing:normal;text-transform:none;writing-mode:lr-tb;direction:ltr;text-orientation:mixed;dominant-baseline:auto;baseline-shift:baseline;text-anchor:start;white-space:normal;shape-padding:0;clip-rule:nonzero;display:inline;overflow:visible;visibility:visible;opacity:1;isolation:auto;mix-blend-mode:normal;color-interpolation:sRGB;color-interpolation-filters:linearRGB;solid-color:#000000;solid-opacity:1;vector-effect:none;fill:#d3d3d3;fill-opacity:1;fill-rule:nonzero;stroke:#000000;stroke-width:27.19457626;stroke-linecap:round;stroke-linejoin:miter;stroke-miterlimit:4;stroke-dasharray:none;stroke-dashoffset:0;stroke-opacity:1;color-rendering:auto;image-rendering:auto;shape-rendering:auto;text-rendering:auto;enable-background:accumulate"
       id="path4"
       d="m 367.79688,-18.685547 c -12.68221,0.376508 -25.14049,5.859473 -33.98438,14.9570314 L 307.18945,22.892578 C 275.90365,3.8238921 239.21848,-7.4394531 200,-7.4394531 85.934351,-7.4394531 -7.4394531,85.934351 -7.4394531,200 c 0,39.21848 11.2633452,75.90365 30.3320311,107.18945 l -26.8515624,26.85157 0.234375,-0.23047 c -18.7351606,18.2059 -18.9763366,51.94554 -0.5039062,70.41797 18.4724306,18.47242 52.2120626,18.23125 70.4179686,-0.50391 l -0.230469,0.23437 26.851563,-26.85156 C 124.09635,396.17611 160.78152,407.43945 200,407.43945 c 114.06565,0 207.43945,-93.3738 207.43945,-207.43945 0,-39.21848 -11.26334,-75.90365 -30.33203,-107.189453 L 403.72852,66.1875 c 14.18056,-13.785329 18.77641,-36.514494 11.0664,-54.726562 -7.71,-18.2120692 -27.22795,-30.733202 -46.99609,-30.146485 a 22.94181,22.94181 0 0 0 -0.002,0 z M 200,91.439453 c 11.73509,0 22.92151,1.865287 33.40625,5.236328 L 96.675781,233.40625 C 93.30474,222.92151 91.439453,211.73509 91.439453,200 91.439453,139.33894 139.33894,91.439453 200,91.439453 Z m 103.32422,75.154297 c 3.37104,10.48474 5.23633,21.67116 5.23633,33.40625 0,60.66106 -47.89949,108.56055 -108.56055,108.56055 -11.73509,0 -22.92151,-1.86529 -33.40625,-5.23633 z"
       transform="matrix(0.09729198,0,0,0.09729339,31.968265,51.86011)"
       inkscape:export-xdpi="11.96"
       inkscape:export-ydpi="11.96" />
    <path
       inkscape:export-ydpi="20.379999"
       inkscape:export-xdpi="20.379999"
       transform="matrix(1.4880024,0,0,1.4880024,-641.02535,-197.38751)"
       d="m 530.23242,177.73242 c -3.20225,0 -5.8202,0.87576 -7.60742,2.72461 a 1.0669974,1.0669974 0 0 0 -0.006,0.008 c -1.7278,1.81874 -2.57422,4.29579 -2.57422,7.21485 v 20.73633 a 1.0669974,1.0669974 0 0 0 1.06641,1.0664 h 5.96094 a 1.0669974,1.0669974 0 0 0 1.0664,-1.0664 v -9.32422 h 6.29297 a 1.0669974,1.0669974 0 0 0 1.06641,-1.06641 v -4.95898 A 1.0669974,1.0669974 0 0 0 534.43164,192 h -6.29297 c 2.3e-4,-0.26294 0.0147,-1.58866 0.041,-2.89648 0.0133,-0.65965 0.0292,-1.31663 0.0488,-1.83008 0.01,-0.25673 0.0207,-0.47727 0.0312,-0.63867 0.009,-0.13968 0.0221,-0.21565 0.0117,-0.17579 0.0982,-0.34119 0.23318,-0.60682 0.39454,-0.82226 0.16773,-0.19315 0.38198,-0.35569 0.71289,-0.48438 a 1.0669974,1.0669974 0 0 0 0.0273,-0.0117 c 0.34052,-0.14337 0.81146,-0.23632 1.42578,-0.23632 0.44286,0 0.94243,0.0578 1.49414,0.17773 a 1.0669974,1.0669974 0 0 0 0.0508,0.01 c 0.55988,0.0933 1.05679,0.24088 1.49805,0.43945 a 1.0669974,1.0669974 0 0 0 1.47461,-0.7207 l 1.16016,-4.75977 a 1.0669974,1.0669974 0 0 0 -0.62305,-1.23437 c -0.5977,-0.25166 -1.35642,-0.47269 -2.3086,-0.69141 -5.9e-4,-1.5e-4 -0.001,1.5e-4 -0.002,0 -1.03297,-0.26544 -2.14863,-0.39258 -3.34375,-0.39258 z"
       id="path25"
       style="font-style:normal;font-variant:normal;font-weight:bold;font-stretch:normal;font-size:40px;line-height:1.25;font-family:Ubuntu;-inkscape-font-specification:'Ubuntu Bold';text-align:center;letter-spacing:0px;word-spacing:0px;text-anchor:middle;fill:#d000e3;fill-opacity:1;stroke:#000000;stroke-width:3.60550499;stroke-linecap:round;stroke-linejoin:round;stroke-miterlimit:4;stroke-dasharray:none;stroke-opacity:1;paint-order:stroke fill markers"
       inkscape:original="M 530.23242 178.79883 C 527.21909 178.79883 524.93925 179.59922 523.39258 181.19922 C 521.87258 182.79922 521.11133 184.95969 521.11133 187.67969 L 521.11133 208.41602 L 527.07227 208.41602 L 527.07227 198.02539 L 534.43164 198.02539 L 534.43164 193.06641 L 527.07227 193.06641 L 527.07227 192.02539 C 527.07227 191.46539 527.12575 186.67922 527.23242 186.19922 C 527.36575 185.71922 527.56536 185.30565 527.83203 184.95898 C 528.12536 184.61231 528.51219 184.34487 528.99219 184.1582 C 529.49886 183.94487 530.11203 183.83789 530.83203 183.83789 C 531.36536 183.83789 531.9394 183.90573 532.55273 184.03906 C 533.19273 184.14573 533.77917 184.31859 534.3125 184.55859 L 535.47266 179.79883 C 534.96599 179.5855 534.24583 179.37153 533.3125 179.1582 C 532.37917 178.9182 531.35242 178.79883 530.23242 178.79883 z "
       inkscape:radius="1.0668907"
       sodipodi:type="inkscape:offset" />
    <path
       d="m 126.46321,187.65521 q 0,-4.43598 -1.99298,-7.07186 -1.99297,-2.70016 -5.91464,-2.70016 -1.28579,0 -2.37871,0.12858 -1.09292,0.0643 -1.80011,0.19287 v 17.29389 q 0.90006,0.57861 2.31443,0.96435 1.47866,0.38573 2.95732,0.38573 6.81469,0 6.81469,-9.1934 z m 9.77201,-0.25716 q 0,3.92166 -0.96434,7.13614 -0.96434,3.21448 -2.82874,5.5289 -1.8644,2.31442 -4.62885,3.60022 -2.76445,1.28579 -6.36467,1.28579 -1.99297,0 -3.72879,-0.38574 -1.73582,-0.38574 -3.34306,-1.09292 v 12.72933 h -9.57914 v -44.55266 q 1.28579,-0.38574 2.95732,-0.70719 1.67153,-0.38574 3.47163,-0.6429 1.8644,-0.25715 3.7288,-0.38573 1.92868,-0.19287 3.6645,-0.19287 4.17882,0 7.45759,1.28579 3.27877,1.2215 5.5289,3.53593 2.25014,2.25013 3.40735,5.5289 1.2215,3.27877 1.2215,7.32901 z"
       style="font-style:normal;font-variant:normal;font-weight:bold;font-stretch:normal;font-size:40px;line-height:1.25;font-family:Ubuntu;-inkscape-font-specification:'Ubuntu Bold';text-align:center;letter-spacing:0px;word-spacing:0px;text-anchor:middle;fill:#00c0d9;fill-opacity:1;stroke:#000000;stroke-width:4;stroke-linecap:round;stroke-linejoin:round;stroke-miterlimit:4;stroke-dasharray:none;stroke-opacity:1;paint-order:stroke fill markers"
       id="path830"
       inkscape:connector-curvature="0"
       inkscape:export-xdpi="21.5"
       inkscape:export-ydpi="21.5" />
  </g>
</svg>
